<?xml version="1.0" encoding="utf-8"?>
<!-- Generator: Adobe Illustrator 26.5.0, SVG Export Plug-In . SVG Version: 6.00 Build 0)  -->
<svg version="1.1" id="图层_1" xmlns="http://www.w3.org/2000/svg" xmlns:xlink="http://www.w3.org/1999/xlink" x="0px" y="0px"
	 viewBox="0 0 456.1 276.4" style="enable-background:new 0 0 456.1 276.4;" xml:space="preserve">
<style type="text/css">
	.st0{fill:#00F6E0;}
</style>
<path class="st0" d="M368.7,18.8H251.1h-1.6H218l-74.2,95.8L69.7,18.8c0,0-0.1-0.1-0.1-0.1H12.2L118,155.3c0.8,1,1.2,2.3,1.2,3.6
	v102.3h51.2V156.4c0-1.3,0.4-2.6,1.2-3.6L234,72.3c1.1-1.4,2.8-2.3,4.7-2.3h10.8h1.6h121c15.7,0,28.3,12.7,28.3,28.3
	s-12.7,28.3-28.3,28.3H243.9v134.4h51.2v-83.2h73.7c43.9,0,79.6-35.6,79.6-79.6v0C448.3,54.4,412.7,18.8,368.7,18.8z"/>
</svg>
