<?xml version="1.0" encoding="utf-8"?>
<!-- Generator: Adobe Illustrator 26.5.0, SVG Export Plug-In . SVG Version: 6.00 Build 0)  -->
<svg version="1.1" id="图层_1" xmlns="http://www.w3.org/2000/svg" xmlns:xlink="http://www.w3.org/1999/xlink" x="0px" y="0px"
	 viewBox="0 0 595.3 334.5" style="enable-background:new 0 0 595.3 334.5;" xml:space="preserve">
<path d="M459.2,20.6H318h-1.9h-37.8l-89,115l-89-114.9c0-0.1-0.1-0.1-0.2-0.1H31.3l126.9,163.9c1,1.2,1.5,2.8,1.5,4.3v122.8h61.5
	V185.9c0-1.6,0.5-3.1,1.5-4.3l74.9-96.7c1.3-1.7,3.4-2.7,5.6-2.7h13h1.9h145.2c18.8,0,34,15.2,34,34c0,18.8-15.2,34-34,34H309.3
	v161.4h61.5v-99.9h88.4c52.7,0,95.5-42.8,95.5-95.5v0C554.7,63.4,511.9,20.6,459.2,20.6z"/>
</svg>
