<?xml version="1.0" encoding="utf-8"?>
<!-- Generator: Adobe Illustrator 26.5.0, SVG Export Plug-In . SVG Version: 6.00 Build 0)  -->
<svg version="1.1" id="图层_1" xmlns="http://www.w3.org/2000/svg" xmlns:xlink="http://www.w3.org/1999/xlink" x="0px" y="0px"
	 viewBox="0 0 841.9 595.3" style="enable-background:new 0 0 841.9 595.3;" xml:space="preserve">
<style type="text/css">
	.st0{fill:#00F6E0;}
	.st1{fill:#FFFFFF;}
</style>
<path class="st0" d="M91.4,297.4c0-3.7,0.5-7.2,1.9-10.6c2.5-6.2,6.9-10.3,13.1-12.5c2.1-0.8,4.4-1.2,6.6-1.4
	c1.8-0.2,3.6-0.2,5.4-0.1c4.1,0.2,8,1.1,11.6,3.1c5.5,2.9,9,7.4,10.7,13.4c0.7,2.6,1,5.3,1,8c0,3.1-0.3,6.1-1.2,9
	c-2.3,7.3-7.1,12-14.3,14.4c-2,0.7-4.1,1.1-6.2,1.3c-1.9,0.2-3.8,0.2-5.7,0.1c-4.2-0.3-8.3-1.3-12-3.4c-4.8-2.7-7.9-6.8-9.6-12
	C91.8,303.6,91.4,300.5,91.4,297.4z M101.2,297.5c0,1.1,0.1,2.3,0.4,3.5c1.4,6.8,6.9,11.5,13.8,12.1c1.7,0.2,3.4,0,5.1-0.4
	c5.3-1.4,8.9-4.6,10.6-9.8c1.1-3.2,1.1-6.4,0.4-9.7c-0.6-2.6-1.9-4.9-3.7-6.8c-3.4-3.5-9.1-5.4-13.9-4.4c-3.9,0.8-7.1,2.7-9.5,5.9
	C102.1,290.6,101.2,293.9,101.2,297.5z"/>
<path class="st0" d="M291.5,321.6c-3.3,0-6.4,0-9.6,0c0-0.1-0.1-0.3-0.2-0.5c0-0.2,0-0.4,0-0.6c0-5.8,0-11.5,0-17.3
	c0-0.3,0-0.6,0-0.9c-0.3,0-0.6-0.1-0.9-0.1c-7.9,0-15.9,0-23.8,0c-0.2,0-0.5,0-0.8,0.1c0,0.4,0,0.8,0,1.1c0,5.7,0,11.4,0,17.1
	c0,0.3,0,0.7-0.1,1c-0.6,0.2-8,0.2-9.6,0.1c0-0.1-0.1-0.3-0.1-0.5c0-0.2,0-0.4,0-0.6c0-15.5,0-30.9,0-46.4c0-0.3-0.1-0.7,0.2-1
	c3.1,0,6.3,0,9.5,0c0,0.2,0.1,0.3,0.1,0.4c0,0.3,0,0.6,0,0.8c0,5.6,0,11.2,0,16.8c0,0.4,0,0.7,0,1.1c0.6,0.1,24.8,0.1,25.5,0
	c0-0.3,0-0.6,0-0.9c0-5.7,0-11.5,0-17.2c0-0.3,0-0.6,0.1-0.9c0.6-0.1,8.9-0.2,9.7,0c0,0.1,0.1,0.3,0.1,0.4c0,0.3,0,0.5,0,0.8
	c0,15.3,0,30.6,0,45.9C291.5,320.7,291.5,321.1,291.5,321.6z"/>
<path class="st1" d="M565.3,282.8c0,0.2,0,0.4,0.1,0.7c0.6,3.2,0.9,6.4,0.9,9.7c0,9.1,0,18.3,0,27.4c0,0.3,0,0.6,0,0.9
	c-0.6,0.1-6,0.1-6.6,0c0-0.1-0.1-0.2-0.1-0.3c0-16,0-32,0-47.9c0.2-0.1,0.3-0.1,0.4-0.1c2.2,0,4.4,0,6.7,0c0.1,0.3,0.3,0.5,0.4,0.8
	c2,4.6,3.9,9.2,5.9,13.9c3.5,8.2,6.9,16.3,10.4,24.5c0.3,0.7,0.5,1.4,0.6,2.1c0,0.1,0,0.2,0.1,0.4c0.1-0.2,0.2-0.3,0.2-0.4
	c0.1-0.9,0.3-1.8,0.7-2.6c5.4-12.6,10.8-25.2,16.1-37.8c0.1-0.3,0.2-0.5,0.3-0.7c0.6-0.1,6.5-0.1,7.1,0c0,0.1,0.1,0.3,0.1,0.4
	c0,0.2,0,0.4,0,0.6c0,15.4,0,30.9,0,46.3c0,0.3,0,0.6,0,1c-0.8,0.1-1.5,0.1-2.2,0.1c-0.7,0-1.5,0-2.2,0c-0.7,0-1.4,0-2.2,0
	c0-0.2-0.1-0.3-0.1-0.5c0-0.2,0-0.5,0-0.7c0-9.3,0-18.5,0-27.8c0-2.8,0.3-5.6,0.8-8.3c0.1-0.3,0.1-0.6,0.2-1c0-0.2,0-0.3-0.1-0.5
	c0,0.1-0.1,0.3-0.1,0.4c-0.7,3.4-1.9,6.6-3.3,9.8c-3.8,9.1-7.6,18.2-11.4,27.3c-0.2,0.4-0.3,0.8-0.5,1.2c-2.2,0-4.4,0-6.7,0
	c-0.1-0.3-0.2-0.5-0.4-0.8c-3-7.2-6-14.3-8.9-21.5c-1.2-3-2.5-6-3.7-9c-0.9-2.3-1.6-4.6-2.1-7c0-0.2-0.1-0.4-0.2-0.6
	C565.4,282.8,565.4,282.8,565.3,282.8z"/>
<path class="st0" d="M146.1,273.1c3.3,0,6.5,0,9.7,0c0,0.2,0.1,0.4,0.1,0.5c0,0.2,0,0.5,0,0.7c0,8.7,0,17.3,0,26
	c0,1.8,0.3,3.6,1.1,5.3c1.5,3.5,4.1,5.8,7.7,6.9c1.9,0.6,3.9,0.8,6,0.6c1.3-0.1,2.5-0.3,3.7-0.7c4.2-1.3,6.8-4.1,7.9-8.3
	c0.4-1.4,0.5-2.9,0.5-4.4c0-8.5,0-17,0-25.5c0-0.3,0-0.7,0-1.1c0.2,0,0.3-0.1,0.5-0.1c2.9,0,5.7,0,8.6,0c0.2,0,0.3,0,0.5,0.1
	c0,0.3,0.1,0.6,0.1,0.8c0,2,0,4,0,6c0,6.6,0,13.2,0,19.8c0,2.3-0.2,4.5-0.8,6.7c-1.8,6.7-6,11.3-12.4,13.9c-2.4,1-5,1.5-7.6,1.7
	c-1.8,0.1-3.6,0.1-5.4,0c-3.6-0.3-7.1-1.2-10.2-3c-4.6-2.6-7.5-6.4-8.9-11.4c-0.7-2.4-1-4.8-1-7.3c0-3.4,0-6.8,0-10.3
	c0-5.3,0-10.5,0-15.8C146.1,273.9,146.1,273.6,146.1,273.1z"/>
<path class="st1" d="M669.6,280.9c-0.2,0.3-0.1,0.5,0,0.6c0.4,1.4,0.7,2.8,0.8,4.2c0,0.5,0.1,1,0.1,1.5c0,11.2,0,22.3,0,33.5
	c0,0.3,0,0.5,0,0.9c-0.8,0.1-1.5,0-2.2,0.1c-0.7,0-1.5,0-2.2,0c-0.7,0-1.4,0-2.2,0c0-0.2-0.1-0.3-0.1-0.5c0-0.2,0-0.3,0-0.5
	c0-15.5,0-31,0-46.5c0-0.3,0-0.6,0-0.9c0.2,0,0.4-0.1,0.6-0.1c1.9,0,3.9,0,5.8,0c0.4,0,0.6,0.2,0.9,0.5c1.4,1.9,2.8,3.7,4.2,5.6
	c7.3,9.7,14.6,19.5,21.9,29.2c1.2,1.6,2.2,3.4,2.9,5.3c0.1,0.2,0.2,0.4,0.3,0.5c0-0.1,0-0.3,0-0.4c-0.4-1.4-0.7-2.8-0.8-4.3
	c0-0.5-0.1-1-0.1-1.5c0-11.3,0-22.7,0-34c0-0.3,0-0.5,0-0.8c0.2-0.1,0.3-0.1,0.4-0.1c2,0,4,0,6,0c0.1,0,0.1,0,0.2,0.1
	c0,0.1,0.1,0.3,0.1,0.4c0,0.2,0,0.4,0,0.6c0,15.4,0,30.9,0,46.3c0,0.3,0,0.6,0,1c-0.8,0.1-1.6,0.1-2.3,0.1c-0.8,0-1.5,0-2.3,0
	c-0.8,0-1.5,0-2.3,0c-0.2-0.2-0.4-0.4-0.5-0.7c-8.7-11.5-17.4-23-26.1-34.5c-1.1-1.5-2-3.2-2.7-4.9
	C669.8,281.3,669.7,281.1,669.6,280.9z"/>
<path class="st1" d="M543.2,299.2c0.1,0,0.2,0,0.3,0c1.2-0.2,2.5-0.3,3.7-0.5c2.3-0.3,4.4,0.3,6,2.1c1,1.1,1.5,2.5,1.8,3.9
	c0.1,0.9,0.2,1.7,0.2,2.6c0,4.5,0.1,8.9,0.1,13.4c0,0.3,0,0.5,0,0.8c-0.6,0.1-6,0.1-6.7,0c0-0.3,0-0.6,0-0.9c0-4.1,0-8.2,0-12.3
	c0-0.5,0-0.9-0.1-1.4c-0.2-1.2-0.9-2.1-2.1-2.5c-0.8-0.3-1.6-0.4-2.5-0.4c-1.8,0-3.5,0-5.3,0c-5.3,0-10.7,0-16,0c-0.3,0-0.6,0-1,0.1
	c0,0.4,0,0.6,0,0.9c0,5.2,0,10.3,0,15.5c0,0.3,0,0.6,0,0.9c-0.6,0.1-5.6,0.2-6.5,0.1c0-0.1-0.1-0.3-0.1-0.5c0-0.2,0-0.4,0-0.6
	c0-15.4,0-30.8,0-46.3c0-0.3,0-0.7,0-1.1c0.3,0,0.6,0,0.9,0c6.3,0,12.5,0,18.8,0c1.1,0,2.3,0,3.4,0c2.3,0.1,4.7,0.3,6.9,1
	c1.5,0.4,2.9,1,4.2,1.8c2.3,1.4,4,3.4,4.8,6c0.9,2.7,1.1,5.4,0.5,8.1c-0.2,1.1-0.7,2.2-1.3,3.2c-1.7,2.5-4,4.2-7,5
	c-0.8,0.2-1.7,0.4-2.5,0.6c-0.2,0-0.3,0.1-0.5,0.2C543.2,299.1,543.2,299.1,543.2,299.2z M521.7,298.3c0.3,0,0.5,0,0.7,0
	c4.5,0,9,0,13.5,0c1.3,0,2.6-0.1,3.9-0.4c2.2-0.5,4.2-1.4,5.8-2.9c1.5-1.4,2.6-3.1,2.8-5.1c0.2-1.7,0.1-3.4-0.5-5.1
	c-0.6-1.9-1.8-3.3-3.6-4.3c-0.6-0.3-1.3-0.6-1.9-0.8c-1.8-0.5-3.7-0.7-5.6-0.7c-2.3,0-4.6,0-6.9,0c-2.5,0-5,0-7.5,0
	c-0.3,0-0.6-0.1-0.8,0.1C521.5,279.9,521.6,297.6,521.7,298.3z"/>
<path class="st1" d="M408.5,299.2c0.7-0.1,1.3-0.2,1.9-0.2c1.2-0.1,2.4-0.4,3.7-0.4c2.8,0.1,4.8,1.5,5.9,4c0.4,0.9,0.7,1.9,0.7,3
	c0.1,1.5,0.1,3,0.1,4.6c0,3.5,0,7,0,10.5c0,0.3,0,0.6,0,0.9c-0.6,0.2-1.1,0.1-1.7,0.1c-0.6,0-1.1,0-1.7,0c-0.5,0-1.1,0-1.6,0
	c-0.6,0-1.1,0-1.6,0c-0.3-0.3-0.2-0.6-0.2-0.9c0-3.7,0-7.5,0-11.2c0-0.6,0-1.1,0-1.7c0-0.3-0.1-0.7-0.1-1c-0.2-1.1-0.9-1.9-1.9-2.3
	c-0.9-0.3-1.7-0.4-2.7-0.4c-2.2,0-4.3,0-6.5,0c-4.9,0-9.8,0-14.7,0c-0.3,0-0.6,0-1,0.1c0,0.4-0.1,0.7-0.1,1c0,5.1,0,10.2,0,15.3
	c0,0.3,0,0.6,0,0.9c-0.5,0.1-5.5,0.2-6.5,0.1c0-0.1-0.1-0.3-0.1-0.4c0-0.3,0-0.6,0-0.8c0-15.3,0-30.6,0-45.9c0-0.4,0-0.8,0-1.2
	c0.2,0,0.4-0.1,0.5-0.1c0.1,0,0.2,0,0.3,0c7.3,0,14.7,0,22,0c2.9,0,5.7,0.4,8.4,1.4c1.9,0.7,3.7,1.7,5.1,3.1
	c1.9,1.9,2.9,4.2,3.3,6.8c0.2,1.7,0.3,3.4,0,5.1c-0.1,1-0.4,1.9-0.9,2.8c-1.3,2.2-3,4.1-5.4,5.1c-1.4,0.6-2.9,1.1-4.5,1.4
	C409,298.9,408.8,298.9,408.5,299.2z M387.1,298.2c0.3,0,0.5,0,0.8,0c4.5,0,9,0,13.5,0c1.3,0,2.6-0.1,3.9-0.4
	c2.1-0.5,4.1-1.4,5.8-2.8c1.5-1.3,2.5-2.9,2.9-4.9c0.2-1.3,0.2-2.6-0.1-3.9c-0.5-3-2.2-5.1-5.1-6.1c-1.9-0.7-3.9-0.9-5.9-1
	c-5.1,0-10.1,0-15.2,0c-0.2,0-0.4,0-0.6,0.1c-0.2,0.7-0.2,12.4-0.1,18.4C387,297.7,387.1,297.9,387.1,298.2z"/>
<path class="st1" d="M462.3,297.4c0-3.3,0.4-6.5,1.4-9.6c2.5-7.5,7.6-12.2,15.2-14.2c3-0.8,6.1-1,9.2-0.8c4,0.2,7.9,1.2,11.4,3.2
	c4.8,2.7,8,6.8,9.7,12c1,3.2,1.4,6.4,1.4,9.8c0,3.1-0.4,6.1-1.4,9.1c-2.4,7.2-7.2,11.9-14.4,14.1c-1.7,0.5-3.4,0.8-5.2,1
	c-1.8,0.2-3.7,0.2-5.5,0.1c-3.9-0.3-7.6-1.2-11-3.2c-4.5-2.6-7.5-6.4-9.3-11.3C462.7,304.3,462.3,300.9,462.3,297.4z M503.9,297.2
	c0-1.6-0.2-3.3-0.6-5c-2.4-9.8-11.9-14.5-20-13c-5.5,1-9.6,4.1-12.2,9.1c-1.2,2.3-1.8,4.8-2,7.4c-0.3,3.4,0.2,6.7,1.6,9.8
	c2.8,6.3,8.8,10.2,15.9,10.3c1.5,0,2.9-0.2,4.3-0.5c5.2-1.3,9-4.4,11.3-9.3C503.4,303.3,503.9,300.4,503.9,297.2z"/>
<path class="st1" d="M339.7,321.6c0-0.2-0.1-0.4-0.1-0.6c-0.1-4.9-0.1-46.9,0.1-47.7c0.1,0,0.3-0.1,0.4-0.1c0.2,0,0.4,0,0.6,0
	c11.4,0,22.8,0,34.2,0c0.3,0,0.6,0,0.9,0c0.2,0.6,0.2,5.5,0,6.2c-0.2,0-0.5,0-0.8,0c-3.3,0-6.7,0-10,0c-5.9,0-11.9,0-17.8,0
	c-0.3,0-0.6,0-1,0c0,0.3-0.1,0.6-0.1,0.8c0,4.7,0,9.5,0,14.2c0,0.2,0,0.5,0.1,0.8c0.4,0,0.7,0,1,0c5.9,0,11.8,0,17.6,0c3,0,6,0,9,0
	c0.3,0,0.6,0,0.9,0c0.2,0.6,0.2,4.6,0,5.4c-0.1,0-0.3,0.1-0.4,0.1c-0.3,0-0.6,0-0.8,0c-8.7,0-17.5,0-26.2,0c-0.3,0-0.7,0-1,0
	c-0.3,0.3-0.2,0.7-0.2,1c0,2.8,0,5.6,0,8.5c0,1.4,0,2.7,0,4.1c0,0.3,0,0.5,0.1,0.9c0.3,0,0.6,0,0.9,0c7.1,0,14.2,0,21.3,0
	c2.2,0,4.4,0,6.5,0c0.2,0,0.5,0,0.8,0c0.2,0.7,0.1,1.4,0.1,2.1c0,0.7,0,1.3,0,2c0,0.7,0.1,1.4,0,2c-0.1,0.1-0.1,0.1-0.1,0.1
	c0,0,0,0-0.1,0c-0.1,0-0.2,0-0.3,0c-11.8,0-23.7,0-35.5,0C339.9,321.6,339.9,321.6,339.7,321.6z"/>
<path class="st1" d="M768.1,300.9c-0.2,0.9-0.2,13.8,0,14.4c9.8,0,19.6,0,29.4,0c0.1,0.2,0.1,0.4,0.1,0.6c0,1.7,0,3.5,0,5.2
	c0,0.2-0.1,0.3-0.1,0.4c-0.6,0.1-35.5,0.1-36.2,0c0-0.1-0.1-0.3-0.1-0.4c0-0.2,0-0.4,0-0.6c0-15.4,0-30.8,0-46.2c0-0.3,0-0.7,0-1.1
	c0.2,0,0.4-0.1,0.5-0.1c0.2,0,0.3,0,0.5,0c11.4,0,22.9,0,34.3,0c0.3,0,0.6,0,0.9,0c0,0.2,0.1,0.4,0.1,0.6c0,1.7,0,3.5,0,5.2
	c0,0.2-0.1,0.3-0.1,0.5c-0.3,0-0.6,0-0.9,0c-9.2,0-18.5,0-27.7,0c-0.3,0-0.6,0-0.9,0c-0.2,0.7-0.3,10.7-0.1,15.1
	c0,0.2,0,0.4,0.1,0.7c3.2,0,6.4,0,9.6,0c3.1,0,6.3,0,9.4,0c3.2,0,6.3,0,9.5,0c0.2,0.6,0.1,1.2,0.1,1.8c0,0.6,0,1.2,0,1.8
	c0,0.6,0.1,1.2-0.1,1.8c-0.3,0-0.6,0.1-0.9,0.1c-2.9,0-5.8,0-8.7,0c-6,0-12,0-18,0C768.8,300.9,768.5,300.9,768.1,300.9z"/>
<path class="st1" d="M757,289.6c-2.1,0.6-4.2,1.2-6.4,1.8c-0.1-0.3-0.2-0.6-0.3-0.9c-0.7-2.4-1.9-4.5-3.6-6.2
	c-2.1-2.2-4.7-3.5-7.6-4.3c-2.2-0.5-4.3-0.7-6.5-0.5c-2.1,0.1-4.2,0.6-6.2,1.4c-4,1.8-6.6,4.8-8,8.9c-0.7,2.1-1.1,4.3-1.1,6.5
	c-0.1,2.4,0.1,4.9,0.7,7.2c0.7,2.6,1.8,4.9,3.7,6.9c2.2,2.4,5,3.8,8.1,4.5c2,0.4,3.9,0.5,5.9,0.4c2.5-0.2,5-0.7,7.3-1.9
	c3.8-2,6.2-5,7.4-9.1c0.1-0.3,0.2-0.5,0.3-0.8c0,0,0.1-0.1,0.1-0.1c2.1,0.6,4.1,1.1,6.2,1.7c0.2,0.3,0,0.6,0,0.8
	c-2.1,7.4-6.7,12.5-14.1,14.9c-1.9,0.6-3.9,1-5.9,1.2c-1.8,0.2-3.6,0.2-5.3,0.1c-5-0.4-9.6-1.9-13.5-5.2c-3-2.6-5-5.9-6.2-9.6
	c-1.2-3.8-1.5-7.6-1.4-11.6c0.1-2.7,0.5-5.3,1.3-7.9c1.3-4.2,3.6-7.7,7.1-10.4c2.6-2,5.6-3.3,8.8-4c2.7-0.6,5.4-0.7,8.1-0.5
	c3.3,0.2,6.6,0.9,9.6,2.3c5.3,2.5,8.9,6.5,10.8,12c0.2,0.7,0.4,1.4,0.6,2.1C756.9,289.4,756.9,289.5,757,289.6z"/>
<path class="st1" d="M631.2,273.2c3.3,0,6.5,0,9.8,0c0.1,0.2,0.2,0.5,0.4,0.8c1.4,3.8,2.9,7.6,4.3,11.4c4.4,11.7,8.8,23.4,13.3,35.2
	c0.1,0.3,0.2,0.6,0.4,1c-0.1,0-0.2,0.1-0.4,0.1c-2.3,0-4.6,0-7,0c-0.1-0.3-0.3-0.5-0.4-0.8c-1.3-3.3-2.5-6.7-3.8-10
	c-0.1-0.3-0.2-0.5-0.3-0.7c-0.6-0.1-22.2-0.2-23,0c-0.1,0.2-0.2,0.5-0.3,0.8c-1.3,3.3-2.5,6.7-3.8,10c-0.1,0.3-0.2,0.5-0.3,0.8
	c-2.4,0-4.7,0-7.1,0c-0.1-0.3,0-0.5,0.1-0.7c0.8-2.3,1.7-4.5,2.5-6.7c5-13.3,10.1-26.7,15.1-40C630.9,273.8,631.1,273.5,631.2,273.2
	z M626.8,304.1c0.3,0,0.5,0,0.7,0c4.2,0,8.4,0,12.6,0.1c1,0,2,0.1,3.1,0.1c0.7,0,1.2,0.2,1.7,0.7c0.4,0.4,0.7,0.8,1.1,1.2
	c0.1,0.2,0.3,0.4,0.4,0.6c0.1-0.1,0.1-0.2,0-0.3c-3.4-9-6.8-18-10.2-27.1c0-0.1-0.1-0.1-0.2-0.2c-0.1,0.1-0.1,0.2-0.2,0.3
	C635.1,281.2,626.9,303.4,626.8,304.1z"/>
<path class="st0" d="M196.8,282.1c-0.1-1.1-0.1-8.3,0-8.9c0.1,0,0.2-0.1,0.2-0.1c14.8,0,29.7,0,44.5,0c0.1,0,0.2,0,0.2,0.1
	c0.1,0.6,0.2,8.2,0,8.9c-0.2,0-0.4,0.1-0.7,0.1c-4.9,0-9.7,0-14.6,0c-1.3,0-2.3-0.5-3.3-1.2c-0.2-0.1-0.4-0.3-0.6-0.3
	c0,0.1,0,0.2,0.1,0.3c0.1,0.1,0.2,0.2,0.3,0.3c0.8,1.1,1.3,2.2,1.2,3.6c0,1.8,0,3.6,0,5.3c0,10.1,0,20.2,0,30.3c0,0.4,0,0.8,0,1.2
	c-0.7,0.1-1.3,0-2,0.1c-0.6,0-1.2,0-1.9,0c-0.6,0-1.3,0-1.9,0c-0.6,0-1.2,0-1.9,0c-0.6,0-1.3,0-2,0c0-0.4,0-0.7,0-1
	c0-12.4,0-24.9,0-37.3c0-0.3,0-0.7,0-1.1c-0.4,0-0.7-0.1-1-0.1c-5.2,0-10.5,0-15.7,0C197.5,282.1,197.2,282.1,196.8,282.1z"/>
<path class="st0" d="M73.2,321.6c-3.2,0-6.4,0-9.6,0c0-0.2-0.1-0.4-0.1-0.5c0-0.3,0-0.6,0-0.8c0-6.5,0-12.9,0-19.4
	c0-0.7-0.2-1.2-0.6-1.8c-6.3-8.4-12.5-16.7-18.8-25.1c-0.1-0.2-0.3-0.4-0.4-0.6c0-0.1,0.1-0.1,0.1-0.1c0,0,0,0,0.1,0
	c3.7,0,7.4,0,11.2,0c0.2,0,0.4,0,0.6,0c0.2,0.2,0.3,0.4,0.5,0.6c3.6,5,7.2,10,10.8,15c0.8,1.1,1.2,2.4,1.4,3.7
	c0,0.3,0.1,0.6,0.1,0.9c0,0,0.1,0,0.1,0c0-0.1,0.1-0.2,0.1-0.3c0.1-1.7,0.7-3.2,1.7-4.6c3.5-4.9,7-9.8,10.5-14.7
	c0.1-0.2,0.3-0.4,0.4-0.6c0.9-0.1,11.4-0.1,12,0c-0.2,0.2-0.3,0.4-0.4,0.6c-6.2,8.3-12.4,16.5-18.6,24.8c-0.6,0.8-0.8,1.5-0.8,2.5
	c0,6.5,0,12.9,0,19.4C73.3,320.9,73.2,321.2,73.2,321.6z"/>
<path class="st1" d="M303.4,304.2c0,1.2,0,2.4,0,3.6c0,1.1,0,2.3,0,3.4c0,1.2,0,2.3,0,3.5c0,1.1,0,2.3,0,3.4c0,1.2,0,2.3,0,3.5
	c-0.6,0.2-1.2,0.1-1.7,0.1c-0.5,0-1.1,0-1.6,0c-0.6,0-1.1,0-1.7,0c-0.5,0-1.1,0-1.6,0c0-0.2-0.1-0.4-0.1-0.6c0-0.2,0-0.5,0-0.7
	c0-15.3,0-30.6,0-45.9c0-0.4,0-0.8,0-1.2c0.3,0,0.6,0,0.8,0c1.6,0,3.1,0,4.7,0c5.3,0,10.6,0,15.8,0c2,0,4,0.2,6,0.7
	c1.7,0.4,3.2,1,4.7,1.8c2.7,1.6,4.6,3.8,5.6,6.7c1.1,3.3,1.4,6.6,0.5,10c-1.1,4-3.5,7-7,9.2c-2.3,1.4-4.8,2.2-7.4,2.5
	c-0.9,0.1-1.8,0.1-2.7,0.1c-4.4,0-8.8,0-13.2,0C304.2,304.2,303.9,304.2,303.4,304.2z M303.5,298.6c0.3,0,0.6,0,0.9,0
	c4,0,8.1,0,12.1,0c1.1,0,2.3-0.1,3.4-0.4c3-0.8,5.4-2.4,7.2-5c0.8-1.2,1.3-2.5,1.4-3.9c0.3-3.8-1.3-7.1-5-8.9c-2-1-4.1-1.4-6.3-1.4
	c-4.3,0-8.7,0-13,0c-0.2,0-0.4,0-0.7,0c0,0.2-0.1,0.4-0.1,0.6C303.3,284.2,303.4,297.8,303.5,298.6z"/>
<path class="st1" d="M460.7,273.2c0.1,0.7,0.1,5.6,0,6.2c-0.3,0-0.5,0-0.8,0c-4.4,0-8.7,0-13.1,0c-4.1,0-8.2,0-12.3,0
	c-1.4,0-2.6-0.4-3.7-1.2c-0.1-0.1-0.1-0.1-0.2-0.2c0,0-0.1,0-0.2-0.1c0.1,0.2,0.1,0.3,0.2,0.4c0.2,0.4,0.5,0.8,0.7,1.2
	c0.4,0.7,0.6,1.5,0.6,2.3c0,4.1,0,8.3,0,12.4c0,0.3,0,0.6,0,0.9c0.2,0,0.4,0.1,0.6,0.1c0.3,0,0.5,0,0.8,0c8.5,0,17,0,25.5,0
	c0.3,0,0.7,0,1.1,0c0.1,0.2,0.1,0.4,0.1,0.6c0,1.5,0,3,0,4.4c0,0.1-0.1,0.3-0.1,0.5c-0.3,0-0.6,0.1-0.9,0.1c-2.2,0-4.3,0-6.5,0
	c-5.9,0-11.9,0-17.8,0c-1.5,0-2.9-0.4-4-1.3c-0.1-0.1-0.2-0.1-0.3-0.1c0.1,0.1,0.2,0.2,0.3,0.4c0.8,1,1.3,2.2,1.3,3.5
	c0,5.8,0,11.7,0,17.5c0,0.2,0,0.5,0,0.7c-0.6,0.1-5.7,0.2-6.5,0c0-0.2-0.1-0.3-0.1-0.5c0-0.2,0-0.5,0-0.7c0-15.3,0-30.7,0-46
	c0-0.4-0.1-0.8,0.1-1.1C425.8,273.1,460,273.1,460.7,273.2z"/>
</svg>
